<svg width="24" height="24" viewBox="0 0 24 24" fill="none" xmlns="http://www.w3.org/2000/svg">
<rect width="24" height="24" fill="#FAFAFA"/>
<path d="M8 1C10.209 1.00014 12 2.79095 12 5V6H14V5C14 3.38296 15.2791 2.06536 16.8809 2.00293C17.1556 1.6948 17.5547 1.5 18 1.5C18.8283 1.50014 19.5 2.17166 19.5 3C19.5 3.82834 18.8283 4.49986 18 4.5C17.5592 4.5 17.1641 4.30863 16.8896 4.00586C16.3892 4.06066 16 4.48492 16 5V6H18.8848C19.1594 5.69394 19.5564 5.5 20 5.5C20.8283 5.50014 21.5 6.17166 21.5 7C21.5 7.82834 20.8283 8.49986 20 8.5C19.5564 8.5 19.1594 8.30606 18.8848 8H12V11H14.8848C15.1594 10.6939 15.5564 10.5 16 10.5C16.8283 10.5001 17.5 11.1717 17.5 12C17.5 12.8283 16.8283 13.4999 16 13.5C15.5564 13.5 15.1594 13.3061 14.8848 13H12V16H16C17.6567 16.0001 19 17.3432 19 19V19.8838C19.3064 20.1584 19.5 20.5562 19.5 21C19.5 21.8283 18.8283 22.4999 18 22.5C17.1716 22.5 16.5 21.8284 16.5 21C16.5 20.5562 16.6937 20.1584 17 19.8838V19C17 18.4478 16.5522 18.0001 16 18H11.9951C11.9953 20.7529 9.76887 22.9898 7.01367 23C4.25233 23.0102 2.00539 20.7799 1.99512 18.0186C1.99248 17.3088 2.13989 16.6339 2.4043 16.0215C0.806733 14.6613 0.525167 12.2749 1.80273 10.5752C1.86079 10.498 1.92099 10.4234 1.9834 10.3516C1.90281 10.2719 1.83956 10.1737 1.80664 10.0557C1.55082 9.13833 1.61867 8.12733 2.0752 7.20703C2.50321 6.34465 3.20109 5.70427 4.01562 5.33789C4.0063 5.22645 4 5.11385 4 5C4 2.79086 5.79086 1 8 1ZM8 3C6.89543 3 6 3.89543 6 5C6 5.50193 6.18544 5.96004 6.49121 6.31055C6.76052 6.61932 6.99995 6.98191 7 7.3916C7 8.14246 6.27441 8.68676 5.66504 8.24805C5.27964 7.97052 4.94628 7.62576 4.68066 7.23145C4.64974 7.25268 4.62005 7.27531 4.58887 7.29492C4.28905 7.48355 4.03631 7.75507 3.86719 8.0957C3.73519 8.36181 3.66762 8.64319 3.65918 8.92188C3.65624 9.01861 3.64449 9.11928 3.62891 9.22168C3.92407 9.11441 4.23027 9.04171 4.54102 9.00586C5.02563 8.94996 5.39917 9.3706 5.39941 9.8584C5.39941 10.4587 4.81586 10.9008 4.25781 11.1221C3.92852 11.2527 3.63 11.4724 3.40137 11.7764C2.73768 12.6593 2.91588 13.9135 3.79883 14.5771C3.94273 14.6853 4.09658 14.7713 4.25586 14.835C4.81393 15.0581 5.39916 15.4977 5.39941 16.0986C5.39941 16.5863 5.02649 17.0073 4.54199 16.9521C4.42955 16.9393 4.31757 16.9199 4.20605 16.8975C4.06917 17.2418 3.9937 17.6173 3.99512 18.0107C4.00127 19.6676 5.34999 21.0062 7.00684 21C8.66331 20.9936 10.001 19.6457 9.99512 17.9893C9.99499 17.9555 9.99698 17.9213 10 17.8877V13.5811C9.63457 13.7835 9.24233 13.9141 8.8418 13.9707C8.36581 14.038 8.00259 13.6164 8.00684 13.1357C8.01244 12.5324 8.62516 12.0907 9.16016 11.8115C9.41219 11.68 9.64102 11.4811 9.82227 11.2188C9.89183 11.118 9.95019 11.0116 10 10.9023V5C10 3.89552 9.10445 3.00014 8 3Z" fill="url(#paint0_linear_171_1518)"/>
<defs>
<linearGradient id="paint0_linear_171_1518" x1="6.06528e-08" y1="5.69702e-08" x2="24" y2="24" gradientUnits="userSpaceOnUse">
<stop offset="0.1" stop-color="#F24F22"/>
<stop offset="0.33" stop-color="#ED1A25"/>
<stop offset="0.67" stop-color="#612D90"/>
<stop offset="0.9" stop-color="#314CA3"/>
</linearGradient>
</defs>
</svg>
