<svg width="24" height="24" viewBox="0 0 24 24" fill="none" xmlns="http://www.w3.org/2000/svg">
<rect width="24" height="24" fill="#FAFAFA"/>
<path d="M14 21C14.5523 21 15 21.4477 15 22C15 22.5523 14.5523 23 14 23H10C9.44772 23 9 22.5523 9 22C9 21.4477 9.44772 21 10 21H14ZM15 17C15.5523 17 16 17.4477 16 18C16 18.5523 15.5523 19 15 19H9C8.44772 19 8 18.5523 8 18C8 17.4477 8.44772 17 9 17H15ZM12 1C15.866 1 19 4.13401 19 8C19 10.2235 17.9623 12.2028 16.3457 13.4844C16.134 13.6522 16 13.9036 16 14.1738C15.9998 14.63 15.63 14.9998 15.1738 15H15C14.4477 15 14 14.5523 14 14V13.2373C14 12.8399 14.2408 12.4877 14.5811 12.2822C16.0306 11.4069 17 9.81691 17 8C17 5.23858 14.7614 3 12 3C9.23858 3 7 5.23858 7 8C7 9.81691 7.96937 11.4069 9.41895 12.2822C9.75918 12.4877 9.99999 12.8399 10 13.2373V14C10 14.5523 9.55228 15 9 15H8.82617C8.36998 14.9998 8.00021 14.63 8 14.1738C8 13.9036 7.86605 13.6522 7.6543 13.4844C6.03771 12.2028 5 10.2235 5 8C5 4.13401 8.13401 1 12 1Z" fill="url(#paint0_linear_171_1379)"/>
<defs>
<linearGradient id="paint0_linear_171_1379" x1="1.30891e-07" y1="2.31381e-07" x2="24" y2="24" gradientUnits="userSpaceOnUse">
<stop offset="0.1" stop-color="#F24F22"/>
<stop offset="0.33" stop-color="#ED1A25"/>
<stop offset="0.67" stop-color="#612D90"/>
<stop offset="0.9" stop-color="#314CA3"/>
</linearGradient>
</defs>
</svg>
