<svg width="24" height="24" viewBox="0 0 24 24" fill="none" xmlns="http://www.w3.org/2000/svg">
<rect width="24" height="24" fill="#FAFAFA"/>
<path d="M17 1C17.5523 1 18 1.44772 18 2V3H19C20.1046 3 21 3.89543 21 5V6H22C22.5523 6 23 6.44772 23 7C23 7.55228 22.5523 8 22 8H21V11H22C22.5523 11 23 11.4477 23 12C23 12.5523 22.5523 13 22 13H21V16H22C22.5523 16 23 16.4477 23 17C23 17.5523 22.5523 18 22 18H21V19C21 20.1046 20.1046 21 19 21H18V22C18 22.5523 17.5523 23 17 23C16.4477 23 16 22.5523 16 22V21H13V22C13 22.5523 12.5523 23 12 23C11.4477 23 11 22.5523 11 22V21H8V22C8 22.5523 7.55228 23 7 23C6.44772 23 6 22.5523 6 22V21H5C3.89543 21 3 20.1046 3 19V18H2C1.44772 18 1 17.5523 1 17C1 16.4477 1.44772 16 2 16H3V13H2C1.44772 13 1 12.5523 1 12C1 11.4477 1.44772 11 2 11H3V8H2C1.44772 8 1 7.55228 1 7C1 6.44772 1.44772 6 2 6H3V5C3 3.89543 3.89543 3 5 3H6V2C6 1.44772 6.44772 1 7 1C7.55228 1 8 1.44772 8 2V3H11V2C11 1.44772 11.4477 1 12 1C12.5523 1 13 1.44772 13 2V3H16V2C16 1.44772 16.4477 1 17 1ZM6 5C5.44772 5 5 5.44772 5 6V18C5 18.5523 5.44772 19 6 19H18C18.5523 19 19 18.5523 19 18V6C19 5.44772 18.5523 5 18 5H6ZM16 7C16.5523 7 17 7.44772 17 8V16C17 16.5523 16.5523 17 16 17H8C7.44772 17 7 16.5523 7 16V8C7 7.44772 7.44772 7 8 7H16ZM9.5 9C9.22386 9 9 9.22386 9 9.5V14.5C9 14.7761 9.22386 15 9.5 15H14.5C14.7761 15 15 14.7761 15 14.5V9.5C15 9.22386 14.7761 9 14.5 9H9.5Z" fill="url(#paint0_linear_171_1406)"/>
<defs>
<linearGradient id="paint0_linear_171_1406" x1="-8.12791e-09" y1="-8.12791e-09" x2="24" y2="24" gradientUnits="userSpaceOnUse">
<stop offset="0.1" stop-color="#F24F22"/>
<stop offset="0.33" stop-color="#ED1A25"/>
<stop offset="0.67" stop-color="#612D90"/>
<stop offset="0.9" stop-color="#314CA3"/>
</linearGradient>
</defs>
</svg>
