<svg width="24" height="24" viewBox="0 0 24 24" fill="none" xmlns="http://www.w3.org/2000/svg">
<rect width="24" height="24" fill="#FAFAFA"/>
<path d="M13 14C15.2091 14 17 15.7909 17 18V21C17 21.5523 16.5523 22 16 22C15.4477 22 15 21.5523 15 21V18C15 16.8954 14.1046 16 13 16H5C3.89543 16 3 16.8954 3 18V21C3 21.5523 2.55228 22 2 22C1.44772 22 1 21.5523 1 21V18C1 15.7909 2.79086 14 5 14H13ZM19 14C21.2091 14 23 15.7909 23 18V21C23 21.5523 22.5523 22 22 22C21.4477 22 21 21.5523 21 21V18C21 16.8954 20.1046 16 19 16C18.4477 16 18 15.5523 18 15C18 14.4477 18.4477 14 19 14ZM15 2.9668C15 2.39254 15.4774 1.91961 16.0371 2.04785C18.3073 2.56797 20.0007 4.59432 20.001 7.0166C20.001 9.43863 18.3078 11.4654 16.0381 11.9863C15.4778 12.1147 15.0001 11.6423 15 11.0674C15 10.5154 15.4492 10.079 15.9658 9.88477C17.1262 9.44859 17.9521 8.3294 17.9521 7.0166C17.952 5.70345 17.1258 4.58262 15.9648 4.14648C15.449 3.95274 15.0002 3.51778 15 2.9668ZM9 2C11.7614 2 14 4.23858 14 7C14 9.76142 11.7614 12 9 12C6.23858 12 4 9.76142 4 7C4 4.23858 6.23858 2 9 2ZM9 4C7.34315 4 6 5.34315 6 7C6 8.65685 7.34315 10 9 10C10.6569 10 12 8.65685 12 7C12 5.34315 10.6569 4 9 4Z" fill="url(#paint0_linear_171_1689)"/>
<defs>
<linearGradient id="paint0_linear_171_1689" x1="-6.7104e-07" y1="2.87403e-07" x2="24" y2="24" gradientUnits="userSpaceOnUse">
<stop offset="0.1" stop-color="#F24F22"/>
<stop offset="0.33" stop-color="#ED1A25"/>
<stop offset="0.67" stop-color="#612D90"/>
<stop offset="0.9" stop-color="#314CA3"/>
</linearGradient>
</defs>
</svg>
