<svg width="24" height="24" viewBox="0 0 24 24" fill="none" xmlns="http://www.w3.org/2000/svg">
<rect width="24" height="24" fill="#FAFAFA"/>
<path d="M12 3C12.5523 3 13 3.44772 13 4V7H19C20.1046 7 21 7.89543 21 9V13H22C22.5523 13 23 13.4477 23 14C23 14.5523 22.5523 15 22 15H21V19C21 20.1046 20.1046 21 19 21H5C3.89543 21 3 20.1046 3 19V15H2C1.44772 15 1 14.5523 1 14C1 13.4477 1.44772 13 2 13H3V9C3 7.89543 3.89543 7 5 7H11V5H8C7.44772 5 7 4.55228 7 4C7 3.44772 7.44772 3 8 3H12ZM6 9C5.44772 9 5 9.44772 5 10V18C5 18.5523 5.44772 19 6 19H18C18.5523 19 19 18.5523 19 18V10C19 9.44772 18.5523 9 18 9H6ZM9 12C9.55228 12 10 12.4477 10 13V15C10 15.5523 9.55228 16 9 16C8.44772 16 8 15.5523 8 15V13C8 12.4477 8.44772 12 9 12ZM15 12C15.5523 12 16 12.4477 16 13V15C16 15.5523 15.5523 16 15 16C14.4477 16 14 15.5523 14 15V13C14 12.4477 14.4477 12 15 12Z" fill="url(#paint0_linear_171_1305)"/>
<defs>
<linearGradient id="paint0_linear_171_1305" x1="8.06168e-07" y1="-7.30307e-07" x2="24" y2="24" gradientUnits="userSpaceOnUse">
<stop offset="0.1" stop-color="#F24F22"/>
<stop offset="0.33" stop-color="#ED1A25"/>
<stop offset="0.67" stop-color="#612D90"/>
<stop offset="0.9" stop-color="#314CA3"/>
</linearGradient>
</defs>
</svg>
